<svg width="417" height="480" viewBox="0 0 417 480" fill="none" xmlns="http://www.w3.org/2000/svg">
<path d="M83.3332 0C60.3207 0 41.6666 18.75 41.6666 41.6667V62.5V208.333V229.167V291.667V312.5V416.667V437.5C41.6666 460.417 60.3207 479.167 83.3332 479.167H375C398.021 479.167 416.667 460.417 416.667 437.5V416.667V312.5V229.167V145.833V125V62.5V41.6667C416.667 18.75 398.021 0 375 0H291.667H83.3332Z" fill="#16A085"/>
<path d="M104.167 0C81.1542 0 62.5 18.75 62.5 41.6667V208.333V291.667V416.667C62.5 439.583 81.1542 458.333 104.167 458.333H270.833H354.167C377.187 458.333 395.833 439.583 395.833 416.667V291.667V208.333V125V41.6667C395.833 18.75 377.187 0 354.167 0H270.833H104.167Z" fill="#ECF0F1"/>
<path d="M291.667 437.5V395.833H375V354.167V312.5C398.021 312.5 416.667 331.25 416.667 354.167V395.833C416.667 418.75 398.021 437.5 375 437.5H291.667Z" fill="#2ECC71"/>
<path d="M291.667 208.333V250H375V291.667V333.333C398.021 333.333 416.667 314.583 416.667 291.667V250C416.667 227.083 398.021 208.333 375 208.333H291.667Z" fill="#E74C3C"/>
<path d="M291.667 104.167V145.833H375V187.5V229.167C398.021 229.167 416.667 210.417 416.667 187.5V145.833C416.667 122.917 398.021 104.167 375 104.167H291.667Z" fill="#F1C40F"/>
<path d="M291.667 0V41.6667H375V83.3333V125C398.021 125 416.667 106.25 416.667 83.3333V41.6667C416.667 18.75 398.021 0 375 0H291.667Z" fill="#2980B9"/>
<path d="M83.3332 0C60.3207 0 41.6666 18.75 41.6666 41.6667V208.333V291.667V395.833H62.4999V416.667V479.167C62.4999 456.25 81.1541 437.5 104.167 437.5H270.833H291.667H318.354H333.333H339.188C354.604 437.5 367.792 429.167 375 416.667V395.833V291.667V208.333V125V41.6667C375 18.75 356.354 0 333.333 0H250H83.3332Z" fill="#1ABC9C"/>
<path d="M196.646 220.833C196.646 231.249 198.896 239.582 203.375 245.832C207.958 252.082 214.125 256.248 221.896 256.248C229.562 256.248 235.708 252.082 240.271 245.832C244.854 239.582 247.125 231.249 247.125 220.833C247.125 210.416 244.792 202.084 240.146 195.834C235.562 189.584 229.396 187.5 221.625 187.5C214.042 187.5 207.958 189.584 203.375 195.834C198.896 202.084 196.646 210.416 196.646 220.833ZM249.729 260.416C247.125 266.666 242.937 270.832 237.167 274.999C231.479 277.082 224.792 279.167 217.104 279.167C202.271 279.167 190.187 274.999 180.865 262.499C171.633 252.083 167.017 239.583 167.017 220.833C167.017 204.166 171.675 189.583 180.994 179.166C190.312 168.749 202.354 162.498 217.104 162.498C224.792 162.498 231.479 164.583 237.167 168.749C242.937 170.833 247.125 177.082 249.729 183.332V166.667H276.771V256.248C287.479 254.165 295.875 247.916 302 239.583C308.125 231.25 311.188 220.834 311.188 206.25C311.188 197.917 309.938 189.582 307.438 183.332C304.938 174.998 301.146 168.748 296.063 162.498C287.854 152.082 277.583 143.749 265.25 137.499C253 131.249 239.708 129.165 225.396 129.165C215.375 129.165 205.792 129.167 196.646 133.334C187.5 135.417 179.052 139.584 171.287 143.75C158.517 152.084 148.552 164.583 141.389 177.083C134.314 189.583 130.777 204.166 130.777 220.833C130.777 233.333 133.064 245.832 137.637 256.248C142.296 268.748 148.983 277.082 157.698 287.498C166.327 295.832 176.206 302.082 187.335 306.249C198.562 310.415 210.5 312.5 223.187 312.5C234.062 312.5 244.937 310.415 255.812 306.249C266.667 302.082 275.958 297.917 283.625 289.584L297.479 310.417C286.688 318.75 274.917 325 262.146 331.25C249.458 335.417 236.562 337.499 223.437 337.499C207.479 337.499 192.417 333.332 178.277 329.165C164.125 322.915 151.529 314.583 140.483 304.166C129.439 293.749 121.027 281.248 115.246 266.665C109.464 252.082 106.575 237.499 106.575 220.833C106.575 204.166 109.508 189.584 115.375 175C121.242 160.417 129.612 147.916 140.483 137.499C151.356 127.083 163.996 118.75 178.406 112.5C192.896 108.334 207.917 104.167 223.437 104.167C242.771 104.167 260.333 108.333 276.125 116.666C291.917 122.916 305.104 133.333 315.729 147.916C322.208 156.249 327.083 164.584 330.354 175C333.708 185.417 335.396 195.834 335.396 206.25C335.396 229.167 328.375 247.916 314.313 260.416C300.229 272.916 280.396 279.167 254.771 279.167H249.729V260.416Z" fill="#16A085"/>
<path d="M20.8334 62.5V83.3333H62.5001V62.5H20.8334ZM20.8334 125V145.833H62.5001V125H20.8334ZM20.8334 187.5V208.333H62.5001V187.5H20.8334ZM20.8334 250V270.833H62.5001V250H20.8334ZM20.8334 312.5V333.333H62.5001V312.5H20.8334ZM20.8334 375V395.833H62.5001V375H20.8334Z" fill="#95A5A6"/>
<path d="M83.3335 0C60.321 0 41.6669 18.75 41.6669 41.6667V62.5V208.333V229.167V291.667V312.5V416.667V437.5C41.6669 460.417 60.321 479.167 83.3335 479.167H104.167C81.1544 479.167 62.5002 460.417 62.5002 437.5V416.667V312.5V291.667V229.167V208.333V62.5V41.6667C62.5002 18.75 81.1544 0 104.167 0H83.3335Z" fill="#1ABC9C"/>
<path d="M41.6669 62.5V83.3333H62.5002V62.5H41.6669ZM41.6669 125V145.833H62.5002V125H41.6669ZM41.6669 187.5V208.333H62.5002V187.5H41.6669ZM41.6669 250V270.833H62.5002V250H41.6669ZM41.6669 312.5V333.333H62.5002V312.5H41.6669ZM41.6669 375V395.833H62.5002V375H41.6669Z" fill="#16A085"/>
<path d="M20.8334 41.6664V62.4998H41.6668V41.6664H20.8334ZM20.8334 104.166V125H41.6668V104.166H20.8334ZM20.8334 166.667V187.5H41.6668V166.667H20.8334ZM20.8334 229.167V250H41.6668V229.167H20.8334ZM20.8334 291.667V312.5H41.6668V291.667H20.8334ZM20.8334 354.167V375H41.6668V354.167H20.8334Z" fill="#BDC3C7"/>
<path d="M20.8333 41.6664C9.32708 41.6664 0 49.9998 0 62.4998C0 72.9164 9.32708 83.3331 20.8333 83.3331V41.6664Z" fill="#BDC3C7"/>
<path d="M20.8333 104.167C9.32708 104.167 0 112.5 0 125C0 135.417 9.32708 145.833 20.8333 145.833V104.167Z" fill="#BDC3C7"/>
<path d="M20.8333 166.667C9.32708 166.667 0 175 0 187.5C0 197.917 9.32708 208.333 20.8333 208.333V166.667Z" fill="#BDC3C7"/>
<path d="M20.8333 229.167C9.32708 229.167 0 237.5 0 250C0 260.416 9.32708 270.833 20.8333 270.833V229.167Z" fill="#BDC3C7"/>
<path d="M20.8333 291.667C9.32708 291.667 0 300 0 312.5C0 322.916 9.32708 333.333 20.8333 333.333V291.667Z" fill="#BDC3C7"/>
<path d="M20.8333 354.167C9.32708 354.167 0 362.5 0 375C0 385.416 9.32708 395.833 20.8333 395.833V354.167Z" fill="#BDC3C7"/>
<path d="M41.6666 41.6664V62.4998H62.4999V41.6664H41.6666ZM41.6666 104.166V125H62.4999V104.166H41.6666ZM41.6666 166.667V187.5H62.4999V166.667H41.6666ZM41.6666 229.167V250H62.4999V229.167H41.6666ZM41.6666 291.667V312.5H62.4999V291.667H41.6666ZM41.6666 354.167V375H62.4999V354.167H41.6666Z" fill="#95A5A6"/>
</svg>
