<svg xmlns="http://www.w3.org/2000/svg" width="50" height="50" fill="none" viewBox="0 0 50 50"><path fill="#fff" d="M26.4707 20.9336V20.8823C26.4609 20.8989 26.4465 20.9175 26.4368 20.9336H26.4707Z"/><path fill="#fff" d="M24.9999 0.692871C11.5756 0.692871 0.693115 11.5754 0.693115 24.9997C0.693115 38.424 11.5756 49.3065 24.9999 49.3065C38.4243 49.3065 49.3068 38.424 49.3068 24.9997C49.3068 11.5754 38.4243 0.692871 24.9999 0.692871ZM18.3061 34.453H13.05V18.6413H18.3061V34.453ZM15.6791 16.4835H15.6436C13.8801 16.4835 12.7378 15.2682 12.7378 13.7499C12.7378 12.1985 13.9148 11.0186 15.7129 11.0186C17.5119 11.0186 18.6179 12.1985 18.6526 13.7499C18.6527 15.2682 17.512 16.4835 15.6791 16.4835ZM37.2621 34.4533H32.006V25.9937C32.006 23.8687 31.2451 22.4182 29.3428 22.4182C27.8902 22.4182 27.0259 23.3955 26.6452 24.3407C26.5065 24.679 26.471 25.1489 26.471 25.6225V34.453H21.2142C21.2142 34.453 21.2843 20.1251 21.2142 18.6413H26.4708V20.8823C27.1689 19.8066 28.4167 18.2696 31.2088 18.2696C34.6688 18.2696 37.2619 20.5292 37.2622 25.3859V34.4533H37.2621Z"/></svg>