<svg xmlns="http://www.w3.org/2000/svg" width="100" height="100" fill="none" viewBox="0 0 100 100"><path fill="#16A085" d="M12.5 33.3333V41.6667V45.8333V58.3333V62.5V83.3333V87.5C12.5 92.1042 16.2308 95.8333 20.8333 95.8333H79.1667C83.7708 95.8333 87.5 92.1042 87.5 87.5V83.3333V62.5V45.8333V33.3333H12.5Z"/><path fill="#ECF0F1" d="M12.5 29.1667V37.5V41.6667V54.1667V58.3333V79.1667V83.3333C12.5 87.9167 16.2308 91.6667 20.8333 91.6667H79.1667C83.7708 91.6667 87.5 87.9167 87.5 83.3333V79.1667V58.3333V41.6667V29.1667H12.5Z"/><path fill="#BDC3C7" d="M12.5 25V33.3333V37.5V50V54.1667V75V79.1667C12.5 83.75 16.2308 87.5 20.8333 87.5H79.1667C83.7708 87.5 87.5 83.75 87.5 79.1667V75V54.1667V37.5V25H12.5Z"/><path fill="#ECF0F1" d="M12.5 20.8333V29.1667V33.3333V45.8333V50V70.8333V75C12.5 79.5833 16.2308 83.3333 20.8333 83.3333H79.1667C83.7708 83.3333 87.5 79.5833 87.5 75V70.8333V50V33.3333V20.8333H12.5Z"/><path fill="#16A085" d="M20.8333 4.16667C16.2308 4.16667 12.5 7.89751 12.5 12.5V16.6667V33.3333V41.6667V45.8333V58.3333V62.5V83.3333V87.5C12.5 92.1042 16.2308 95.8333 20.8333 95.8333H29.1667V91.6667H22.9167C19.465 91.6667 16.6667 88.8667 16.6667 85.4167C16.6667 81.9667 19.465 79.1667 22.9167 79.1667H75H79.1667C83.7708 79.1667 87.5 75.4375 87.5 70.8333V66.6667V45.8333V29.1667V16.6667V12.5C87.5 7.89751 83.7708 4.16667 79.1667 4.16667H62.5H20.8333Z"/><path fill="#1ABC9C" d="M33.3333 4.16667V79.1667H37.5H75H79.1667C83.7708 79.1667 87.5 75.4375 87.5 70.8333V66.6667V45.8333V29.1667V16.6667V12.5C87.5 7.89751 83.7708 4.16667 79.1667 4.16667H62.5H37.5H33.3333Z"/></svg>