<svg xmlns="http://www.w3.org/2000/svg" width="50" height="50" fill="none" viewBox="0 0 50 50"><path fill="#fff" fill-rule="evenodd" d="M28.4829 16.6289C26.5284 17.3401 25.2933 19.1744 25.4336 21.1819L25.4806 21.9565L24.6985 21.8617C21.853 21.4983 19.3664 20.2655 17.2553 18.1938L16.2232 17.1662L15.9575 17.9252C15.3948 19.617 15.7545 21.4035 16.9269 22.605C17.5523 23.2692 17.4112 23.364 16.3329 22.9684C15.9575 22.8423 15.6291 22.7475 15.5978 22.7946C15.4888 22.9058 15.8635 24.3438 16.1605 24.9132C16.5672 25.7043 17.3956 26.4781 18.303 26.9371L19.0694 27.3005L18.1627 27.3162C17.2873 27.3162 17.256 27.3319 17.35 27.6647C17.6627 28.6923 18.8978 29.7834 20.2739 30.258L21.2433 30.5893L20.3993 31.0953C19.1485 31.8237 17.6784 32.2341 16.2082 32.2647C15.5038 32.2804 14.9254 32.3438 14.9254 32.3916C14.9254 32.549 16.8336 33.4341 17.9433 33.7826C21.2739 34.8102 25.2306 34.367 28.2015 32.6125C30.3127 31.3632 32.4232 28.8811 33.409 26.4774C33.9411 25.1975 34.4724 22.8573 34.4724 21.7356C34.4724 21.008 34.5194 20.9132 35.3948 20.0438C35.9112 19.5378 36.3956 18.9849 36.4896 18.8267C36.6463 18.5259 36.6299 18.5259 35.8329 18.7946C34.5038 19.2692 34.3157 19.2058 34.9732 18.4946C35.4575 17.9886 36.0366 17.0714 36.0366 16.8028C36.0366 16.7558 35.8023 16.8341 35.5359 16.9767C35.2545 17.1349 34.6291 17.3722 34.1597 17.514L33.3157 17.7834L32.5493 17.261C32.1269 16.9767 31.5336 16.6602 31.2202 16.5655C30.4224 16.3446 29.2023 16.3759 28.4829 16.6289ZM25.3732 47.761C13.009 47.761 2.98511 37.7371 2.98511 25.3729C2.98511 13.008 13.009 2.98486 25.3732 2.98486C37.7373 2.98486 47.7612 13.008 47.7612 25.3729C47.7612 37.7371 37.7373 47.761 25.3732 47.761Z" clip-rule="evenodd"/></svg>