<svg width="1920" height="288" viewBox="0 0 1920 288" fill="none" xmlns="http://www.w3.org/2000/svg">
<path d="M-7 256.057V212.136C16.0169 206.446 47.5014 176.5 93 160.229C138.632 144.557 221.831 181.191 268.668 160.229C314.167 139.267 359.665 117.306 406.502 133.577C451.867 149.249 497.499 203.152 542.998 197.462C589.433 192.172 635.333 128.286 680.832 128.286C727.133 128.286 773.167 170.81 818.666 197.462C864.7 223.715 897.001 187.48 942.5 155.238C988.4 123.595 1048.84 117.306 1094.33 122.996C1139.97 128.286 1185.33 192.172 1232.17 181.491C1277.67 171.209 1323.17 112.015 1370 91.0531C1415.37 70.0907 1461 85.3633 1506.5 128.286C1552.93 171.209 1598.83 170.511 1644.33 160.229C1690.63 149.548 1736.67 128.286 1782.17 91.0531C1828.2 53.4205 1874.37 133.976 1897.12 128.286L1920 122.996V288H1897.12C1874.1 288 1827.66 288 1782.17 288C1736.53 288 1691.17 288 1644.33 288C1598.83 288 1553.33 288 1506.5 288C1461.13 288 1415.5 288 1370 288C1323.57 288 1277.67 288 1232.17 288C1185.87 288 1139.83 288 1094.33 288C1048.3 288 1002 288 956.5 288C910.6 288 864.165 288 818.666 288C773.034 288 727.669 288 680.832 288C635.333 288 589.835 288 542.998 288C497.633 288 452.001 288 406.502 288C360.067 288 314.167 288 268.668 288C222.367 288 176.333 288 130.834 288C84.8001 288 38.4986 288 15.7493 288H-7V256.057Z" fill="#0099FF"/>
</svg>
