<svg width="1920" height="259" viewBox="0 0 1920 259" fill="none" xmlns="http://www.w3.org/2000/svg">
<path d="M0 219.033V164.078C22.9333 156.959 54.3034 119.49 99.6367 99.132C145.103 79.5232 228 125.36 274.667 99.132C320 72.9037 365.333 45.4264 412 65.7846C457.2 85.3934 502.667 152.838 548 145.719C594.267 139.099 640 59.165 685.333 59.165C731.467 59.165 777.333 112.371 822.667 145.719C868.533 178.566 900.717 133.229 946.051 92.8872C991.784 53.2949 1052 45.4264 1097.33 52.5455C1142.8 59.165 1188 139.099 1234.67 125.735C1280 112.871 1325.33 38.8068 1372 12.5785C1417.2 -13.6499 1462.67 5.45937 1508 59.165C1554.27 112.871 1600 111.996 1645.33 99.132C1691.47 85.7681 1737.33 59.165 1782.67 12.5785C1828.53 -34.5076 1874.53 66.2841 1897.2 59.165L1920 52.5455V259H1897.2C1874.27 259 1828 259 1782.67 259C1737.2 259 1692 259 1645.33 259C1600 259 1554.67 259 1508 259C1462.8 259 1417.33 259 1372 259C1325.73 259 1280 259 1234.67 259C1188.53 259 1142.67 259 1097.33 259C1051.47 259 1005.33 259 960 259C914.267 259 868 259 822.667 259C777.2 259 732 259 685.333 259C640 259 594.667 259 548 259C502.8 259 457.333 259 412 259C365.733 259 320 259 274.667 259C228.533 259 182.667 259 137.333 259C91.4667 259 45.3333 259 22.6667 259H0V219.033Z" fill="#006AB1"/>
</svg>
